<svg xmlns="http://www.w3.org/2000/svg" xmlns:xlink="http://www.w3.org/1999/xlink" version="1.1" x="0px" y="0px" viewBox="0 0 64 64" style="enable-background:new 0 0 64 64;" xml:space="preserve"><path d="M39.87,40.97l-5.83,5.96c-2.69-12.44-13.16-16.1-17.53-17.1l5.87-6C25,24.2,37.6,26.76,39.87,40.97z M24.05,22.12l6.38-6.52  c2.62,0.38,15.22,2.94,17.48,17.14l-6.34,6.48C38.88,26.78,28.42,23.12,24.05,22.12z M32.33,48.67l-6.33,6.47  C23.3,42.7,12.84,39.03,8.47,38.04l6.37-6.51C17.41,31.93,30.08,34.62,32.33,48.67z M54.17,26.36L49.62,31  C46.93,18.56,36.47,14.9,32.1,13.9l4.95-5.06c0.17,0.05,0.36,0.07,0.54,0.07c0,0,0,0,0,0c0.19,0,0.37-0.03,0.54-0.07l16.03,16.37  C54.07,25.59,54.07,25.99,54.17,26.36z M39.42,7.29c1.18-0.56,2.57-1.17,4.09-1.76c1.78,0.41,12.88,3.39,14.38,14.11  c-0.6,1.34-1.31,2.79-2.12,4.36L39.42,7.29z M59.82,4.19c1.46,1.48,2.24,4.82-0.61,12.27C56.92,9.22,50.48,5.82,46.63,4.4  C51.81,2.7,57.41,1.75,59.82,4.19z M3.18,43.43l3.62-3.7c2.62,0.38,15.22,2.94,17.48,17.14l-4,4.08c-0.2,0.21-0.47,0.32-0.75,0.32  c0,0,0,0,0,0c-0.28,0-0.55-0.11-0.75-0.32L3.18,45.04C2.75,44.59,2.75,43.87,3.18,43.43z"/>
<!-- <text x="0" y="79" fill="#000000" font-size="5px" font-weight="bold" font-family="'Helvetica Neue', Helvetica, Arial-Unicode, Arial, Sans-serif">Created by Mustofa Bayu</text><text x="0" y="84" fill="#000000" font-size="5px" font-weight="bold" font-family="'Helvetica Neue', Helvetica, Arial-Unicode, Arial, Sans-serif">from the Noun Project</text> -->
</svg>
