<svg xmlns="http://www.w3.org/2000/svg" xmlns:xlink="http://www.w3.org/1999/xlink" version="1.1" x="0px" y="0px" viewBox="0 0 64 80" style="enable-background:new 0 0 64 64;" xml:space="preserve"><path d="M49.08,3.11c0.76-0.76,2.07-0.76,2.83,0l1.07,1.07L39.55,17.6l-2.48-2.48L49.08,3.11z M18.94,38.21l-2.48-2.48l19.2-19.2  l2.48,2.48L18.94,38.21z M39.55,20.43l7.91,7.91L28.24,47.55l-7.89-7.92L39.55,20.43z M3.12,49.07l11.93-11.93l2.48,2.48L4.18,52.97  L3.12,51.9C2.34,51.12,2.34,49.85,3.12,49.07z M14.92,60.87c-0.78,0.78-2.05,0.78-2.83,0L5.6,54.38l13.34-13.34l7.91,7.91  L14.92,60.87z M60.88,14.91L48.85,26.94l-7.89-7.92L54.39,5.59l6.49,6.49c0.38,0.38,0.59,0.88,0.59,1.41S61.26,14.53,60.88,14.91z"/><text x="0" y="79" fill="#000000" font-size="5px" font-weight="bold" font-family="'Helvetica Neue', Helvetica, Arial-Unicode, Arial, Sans-serif">Created by Mustofa Bayu</text><text x="0" y="84" fill="#000000" font-size="5px" font-weight="bold" font-family="'Helvetica Neue', Helvetica, Arial-Unicode, Arial, Sans-serif">from the Noun Project</text></svg>