<svg xmlns="http://www.w3.org/2000/svg" xmlns:xlink="http://www.w3.org/1999/xlink" version="1.1" x="0px" y="0px" viewBox="0 0 64 64" style="enable-background:new 0 0 64 64;" xml:space="preserve"><path d="M22.46,62.25c-0.69,0-1.33-0.04-1.95-0.11c-2.11-0.45-3.7-2.33-3.7-4.57V52.1c0.93,0.36,2.28,0.84,3.98,1.29l-0.01,2.2  l2,0.01l0.01-1.73c2.59,0.55,5.75,0.99,9.34,0.99c2.63,0,5.49-0.24,8.52-0.82l-0.01,1.66l2,0.01l0.01-2.1  c1.43-0.34,2.89-0.76,4.38-1.27v5.24c0,2.46-1.91,4.45-4.32,4.64c-0.38,0.02-0.77,0.04-1.17,0.04H22.46z M47.03,50.22  c-1.48,0.53-2.94,0.97-4.36,1.32l0.12-22.08h0.57v-3.5H42.8l0.01-2.65l4.21-3.95V50.22z M40.8,25.96h-0.64v3.5h0.62l-0.12,22.52  c-7.21,1.42-13.48,0.77-17.86-0.21l0.12-22.32h0.54v-3.5h-0.52l0.01-2.69c1.65-1.37,9.32-6.95,17.86-0.04L40.8,25.96z M20.94,25.96  h-0.66v3.5h0.65L20.8,51.28c-1.91-0.53-3.28-1.06-3.99-1.35V19.36l4.14,3.88L20.94,25.96z M50.69,40.23v14.93l0.01,0.11  c0,0.02,0.25,2.49-1.5,4.43c-0.25,0.28-0.53,0.52-0.83,0.75c0.42-0.87,0.66-1.84,0.66-2.87V40.28L50.69,40.23z M37.27,5.64V2.25  c0-0.28,0.22-0.5,0.5-0.5h3.08c0.28,0,0.5,0.22,0.5,0.5v3.39c0,0.28-0.22,0.5-0.5,0.5h-3.08C37.49,6.14,37.27,5.92,37.27,5.64z   M22.27,2.25c0-0.28,0.22-0.5,0.5-0.5h3.08c0.28,0,0.5,0.22,0.5,0.5v3.39c0,0.28-0.22,0.5-0.5,0.5h-3.08c-0.28,0-0.5-0.22-0.5-0.5  V2.25z M21.49,8.14h1.28h3.08h11.91h3.08h1.5c2.58,0,4.68,2.1,4.68,4.68v3.8l-5.19,4.86c-9.04-7.11-17.38-1.88-19.84,0l-5.19-4.86  v-3.8C16.81,10.24,18.91,8.14,21.49,8.14z M13.3,55.27l0.01-15.04l1.51,0.04v17.3c0,0.96,0.21,1.86,0.57,2.68  c-0.21-0.18-0.4-0.36-0.58-0.56C13.05,57.75,13.3,55.29,13.3,55.27z"/>
<!-- <text x="0" y="79" fill="#000000" font-size="5px" font-weight="bold" font-family="'Helvetica Neue', Helvetica, Arial-Unicode, Arial, Sans-serif">Created by Mustofa Bayu</text><text x="0" y="84" fill="#000000" font-size="5px" font-weight="bold" font-family="'Helvetica Neue', Helvetica, Arial-Unicode, Arial, Sans-serif">from the Noun Project</text> -->
</svg>
