<svg xmlns="http://www.w3.org/2000/svg" xmlns:xlink="http://www.w3.org/1999/xlink" version="1.1" x="0px" y="0px" viewBox="0 0 64 64" style="enable-background:new 0 0 64 64;" xml:space="preserve"><path d="M29.26,17.99c-0.12,3.25-1.73,13.74-3.52,22.9c-0.64,3.28-1.22,5.98-1.74,8.22c14.23-10.94,31.18-8.94,36.61-7.92  c-1.54-4.46-4.41-11.36-9.63-20.29C42.8,6.87,30.92,6.72,27.83,6.95C28.44,8.8,29.44,12.73,29.26,17.99z M39.35,18.93  c0.6-0.25,1.17-0.34,1.7-0.34c1.65,0,2.84,0.93,2.92,0.99c4.35,3.31,7.98,13.63,9.23,17.51c-10.19-1.28-19.12,2.06-22.74,3.69  C32.59,24.92,36.44,20.13,39.35,18.93z"/><path d="M61.33,43.37c-3.39-0.77-22.93-4.41-38.13,9c-0.27,1.03-0.52,1.93-0.76,2.7c17.73-14.33,34.06-11.33,39.44-9.75  C61.75,44.8,61.57,44.14,61.33,43.37z"/><path d="M25.88,7.42C22.15,8.78,7.51,15.25,2.84,34.65C5.19,35.41,18.3,40.05,21.71,50c2.46-10.21,5.37-27.08,5.55-32.09  C27.44,12.85,26.41,9.04,25.88,7.42z"/><path d="M2.41,36.62c-0.1,0.53-0.21,1.06-0.3,1.61c3.9,1.16,15.9,5.7,17.37,17.96c0.04,0.37,0.09,0.67,0.13,0.91  c0.27-0.61,0.57-1.49,0.89-2.57C20.21,43.21,5.3,37.6,2.41,36.62z"/>
<!-- <text x="0" y="79" fill="#000000" font-size="5px" font-weight="bold" font-family="'Helvetica Neue', Helvetica, Arial-Unicode, Arial, Sans-serif">Created by Mustofa Bayu</text><text x="0" y="84" fill="#000000" font-size="5px" font-weight="bold" font-family="'Helvetica Neue', Helvetica, Arial-Unicode, Arial, Sans-serif">from the Noun Project</text> -->
</svg>
