<svg xmlns="http://www.w3.org/2000/svg" xmlns:xlink="http://www.w3.org/1999/xlink" viewBox="0 0 100 100" version="1.1" x="0px" y="0px"><title>Artboard Copy 2</title><desc>Created with Sketch.</desc><g stroke="none" stroke-width="1" fill="none" fill-rule="evenodd"><g fill="#000000"><path d="M96.8206436,27.3286713 C96.8206436,27.3286713 91.5519469,32.2133635 91.2836876,32.5874126 C90.5352259,33.6310349 89.0122633,36.3113706 86.6695575,39.8181818 C83.4871926,44.5818842 81.1232751,48.7889621 77.4412975,53.2937063 C68.9975798,63.6242386 63.4678527,66.6112017 60.2152121,68.7412587 C50.6793435,74.986014 34.9913014,73.013986 29.4543454,69.7272727 C23.9173894,66.4405594 18.3804334,59.5384615 18.3804334,59.5384615 C18.3804334,59.5384615 22.379346,63.8111888 33.1456494,59.8671329 C43.9119528,55.9230769 48.3708899,54.6221501 55.6010821,51.4411607 C60.6772427,49.2078574 76.2108629,41.4615385 82.3630362,37.5174825 C86.0602973,35.14723 89.287227,32.730881 90.0532529,32.2587413 C90.4047058,32.0421234 93.1293396,27.3286713 93.1293396,27.3286713 L96.8206436,27.3286713 Z"/><path d="M3,27 L6.99891268,27 C6.99891268,27 7.92173868,30.9440559 8.22934735,31.6013986 C9.560615,34.4462437 19.1646375,42.4654808 27.3010847,46.3916084 C36.8369534,50.993007 53.1402128,50.6643357 53.1402128,50.6643357 C53.1402128,50.6643357 36.2217361,56.9090909 30.6847801,58.8811189 C25.1478241,60.8531469 21.45652,59.5384615 21.45652,59.5384615 C21.45652,59.5384615 17.1660156,58.5866747 14.996738,53.951049 C11.9206514,47.3776224 13.151086,46.3916084 11.305434,41.1328671 C9.91049007,37.15831 7.7185083,33.2138583 6.69130401,31.6013986 C6.35941308,31.080411 3,27 3,27 Z"/></g></g>
<!-- <text x="0" y="115" fill="#000000" font-size="5px" font-weight="bold" font-family="'Helvetica Neue', Helvetica, Arial-Unicode, Arial, Sans-serif">Created by Paul Richard</text><text x="0" y="120" fill="#000000" font-size="5px" font-weight="bold" font-family="'Helvetica Neue', Helvetica, Arial-Unicode, Arial, Sans-serif">from the Noun Project</text> -->
</svg>
