<svg xmlns="http://www.w3.org/2000/svg" data-name="Layer 2" viewBox="0 0 100 125" x="0px" y="0px"><title>backpack</title><path d="M65.72,30.28a.75.75,0,0,0,.75-.75v-3a.75.75,0,1,0-1.5,0v3A.76.76,0,0,0,65.72,30.28Z"/><path d="M65.72,36.2a.75.75,0,0,0,.75-.75v-3a.75.75,0,1,0-1.5,0v3A.76.76,0,0,0,65.72,36.2Z"/><path d="M65.68,48h0a.75.75,0,0,0,.74-.71c0-.12,0-.24,0-.37V44.32a.75.75,0,1,0-1.5,0v2.92A.74.74,0,0,0,65.68,48Z"/><path d="M34.28,30.31a.75.75,0,0,0,.75-.75v-3a.75.75,0,0,0-1.5,0v3A.74.74,0,0,0,34.28,30.31Z"/><path d="M57.42,54.71H58a9.08,9.08,0,0,0,2.55-.36.74.74,0,0,0,.51-.92.75.75,0,0,0-.92-.52,7.68,7.68,0,0,1-2.14.3h-.58a.75.75,0,0,0,0,1.5Z"/><path d="M63,53.07a.8.8,0,0,0,.46-.16,7.91,7.91,0,0,0,2.13-2.45.75.75,0,0,0-.29-1,.75.75,0,0,0-1,.3,6.53,6.53,0,0,1-1.73,2A.75.75,0,0,0,63,53.07Z"/><path d="M65.72,42.12a.75.75,0,0,0,.75-.75v-3a.75.75,0,0,0-1.5,0v3A.76.76,0,0,0,65.72,42.12Z"/><path d="M34.28,36.23a.76.76,0,0,0,.75-.75v-3a.75.75,0,1,0-1.5,0v3A.75.75,0,0,0,34.28,36.23Z"/><path d="M51.5,53.21a.75.75,0,0,0,0,1.5h3a.75.75,0,0,0,0-1.5Z"/><path d="M34.28,42.15A.76.76,0,0,0,35,41.4v-3a.75.75,0,0,0-1.5,0v3A.75.75,0,0,0,34.28,42.15Z"/><path d="M34.75,49.47a.76.76,0,0,0-.29,1,7.87,7.87,0,0,0,2.14,2.43.73.73,0,0,0,.45.16.77.77,0,0,0,.6-.3.75.75,0,0,0-.14-1,6.43,6.43,0,0,1-1.74-2A.75.75,0,0,0,34.75,49.47Z"/><path d="M45.58,54.71h3a.75.75,0,0,0,0-1.5h-3a.75.75,0,0,0,0,1.5Z"/><path d="M39.48,54.37a9.69,9.69,0,0,0,2.52.34h.62a.75.75,0,0,0,0-1.5H42a7.72,7.72,0,0,1-2.1-.29.75.75,0,0,0-.42,1.45Z"/><path d="M35,47.27c0-.1,0-.21,0-.32V44.36a.75.75,0,0,0-1.5,0V47c0,.14,0,.27,0,.41a.75.75,0,0,0,.75.71h0A.77.77,0,0,0,35,47.27Z"/><path d="M50,46.14a5,5,0,1,0-5-5A5,5,0,0,0,50,46.14Zm0-8.42a3.46,3.46,0,1,1-3.46,3.46A3.46,3.46,0,0,1,50,37.72Z"/><path d="M45.33,7.93H38.15a.74.74,0,0,0-.75.75V11.1H15.05a.75.75,0,0,0-.75.75v5.21H10.24a.76.76,0,0,0-.75.75v22a.75.75,0,0,0,.75.75H14.3v2a.76.76,0,0,0,.75.75h6.74V56.67H17.12a6.73,6.73,0,0,0-6.72,6.72V83.3A6.73,6.73,0,0,0,17.12,90H28.5a.82.82,0,0,0,.34-.09H71.16a.82.82,0,0,0,.34.09H82.88A6.73,6.73,0,0,0,89.6,83.3V63.39a6.73,6.73,0,0,0-6.72-6.72H78.21V43.28H85a.76.76,0,0,0,.75-.75v-2h4.06a.75.75,0,0,0,.75-.75v-22a.76.76,0,0,0-.75-.75H85.7V11.85A.75.75,0,0,0,85,11.1H62.61V8.68a.74.74,0,0,0-.75-.75H54.68a.75.75,0,0,0-.75.75V11.1H46.08V8.68A.75.75,0,0,0,45.33,7.93Zm-31,31.12H11V18.56H14.3ZM85.7,18.56H89V39.05H85.7ZM38.9,11.85V9.43h5.68V20.76H38.9ZM15.8,41.78V12.6H37.4v8.6H36A14.26,14.26,0,0,0,21.79,35.44v6.34Zm24.33,18.1h3.23V63H40.84a.74.74,0,0,0-.75.75V72a.75.75,0,0,0,.75.75h2.52v4a73.48,73.48,0,0,1-20.07-4V35.44a12.76,12.76,0,0,1,6.56-11.13V51.23C29.85,56,34.46,59.88,40.13,59.88Zm3.23,4.6v6.78H41.59V64.48ZM11.9,63.39a5.23,5.23,0,0,1,5.22-5.22h4.67v9H11.9Zm5.22,25.13A5.23,5.23,0,0,1,11.9,83.3V68.62h9.89V83.21a6.7,6.7,0,0,0,2.62,5.31Zm54.38-.09h-43a5.22,5.22,0,0,1-5.22-5.22V74.39a76.71,76.71,0,0,0,25.08,4c2.43,0,4.9-.11,7.4-.31h.12l.11,0a112.93,112.93,0,0,0,20.71-3.79v8.89A5.22,5.22,0,0,1,71.5,88.43Zm-16.36-24v6.78H44.86V64.48ZM44.86,63v-3.1H55.14V63Zm10.28,9.78v3.87H44.86V72.76Zm4,0a.75.75,0,0,0,.75-.75V63.73a.74.74,0,0,0-.75-.75H56.64v-3.1h3.23c5.67,0,10.28-3.88,10.28-8.65V24.3a12.75,12.75,0,0,1,6.56,11.14V72.77a112.26,112.26,0,0,1-20.07,3.77V72.76Zm-2.52-1.5V64.48h1.77v6.78Zm31.46,12a5.23,5.23,0,0,1-5.22,5.22H75.6a6.69,6.69,0,0,0,2.61-5.31V68.62H88.1ZM82.88,58.17a5.23,5.23,0,0,1,5.22,5.22v3.73H78.21v-9ZM62.61,12.6H84.2V41.78h-6V35.44A14.25,14.25,0,0,0,64,21.2H62.61Zm-7.18-.75V9.43h5.68V20.76H55.43ZM64,22.7c.33,0,.66,0,1,.05v.86a.75.75,0,0,0,1.5,0V23a12.45,12.45,0,0,1,2.18.65V51.23c0,3.94-3.94,7.15-8.78,7.15H40.13c-4.84,0-8.78-3.21-8.78-7.15V23.6A13.08,13.08,0,0,1,33.53,23v.66a.75.75,0,0,0,1.5,0v-.86c.33,0,.66-.05,1-.05Zm-10-10.1v8.6H46.08V12.6Z"/></svg>